PathFileType	4	(X/Y/Z)	TVC_32_Cal_03_0_static_RCNL2025.trc
DataRate	CameraRate	NumFrames	NumMarkers	Units	OrigDataRate	OrigDataStartFrame	OrigNumFrames
100	100	7	27	mm	100	99	197
Frame#	Time	R_Shoulder			L_Shoulder			C7			J_Notch			R_Elbow			L_Elbow			R_Wrist			L_Wrist			R_Asis			L_Asis			R_Psis			L_Psis			Sacral			Thoracic			Sternum			R_Thigh_Lateral			R_Knee_Lateral			R_Shank_Lateral			R_Ankle_Lateral			R_Heel			R_Toe			L_Thigh_Lateral			L_Knee_Lateral			L_Shank_Lateral			L_Ankle_Lateral			L_Heel			L_Toe		
		X1	Y1	Z1	X2	Y2	Z2	X3	Y3	Z3	X4	Y4	Z4	X5	Y5	Z5	X6	Y6	Z6	X7	Y7	Z7	X8	Y8	Z8	X9	Y9	Z9	X10	Y10	Z10	X11	Y11	Z11	X12	Y12	Z12	X13	Y13	Z13	X14	Y14	Z14	X15	Y15	Z15	X16	Y16	Z16	X17	Y17	Z17	X18	Y18	Z18	X19	Y19	Z19	X20	Y20	Z20	X21	Y21	Z21	X22	Y22	Z22	X23	Y23	Z23	X24	Y24	Z24	X25	Y25	Z25	X26	Y26	Z26	X27	Y27	Z27
99	0.98000000	-158.134430	1472.925293	-34.607872	-165.141251	1453.234375	-414.371643	-221.116943	1517.676636	-222.088882	-57.047283	1421.222778	-214.276917	-190.019241	1155.895142	133.835770	-172.377731	1119.641846	-514.270508	-110.585159	893.441589	99.839745	-83.897659	861.539001	-478.254929	-93.146988	1012.617004	-66.873459	-96.657242	1015.219421	-348.085175	-288.131927	1027.154907	-154.509415	-285.548798	1024.335571	-255.720642	-286.840363	1025.745239	-205.115028	-282.772369	1253.009033	-212.113113	-33.425079	1276.163208	-216.329742	-194.602173	638.631714	-2.341863	-178.540100	501.879395	-48.229416	-227.994034	303.410797	3.995413	-240.357773	82.346161	-60.913555	-293.848267	53.804638	-125.877144	-96.947159	41.746925	-55.783226	-162.881927	680.480713	-434.839020	-186.434113	503.124939	-398.333405	-205.769058	360.908783	-462.792023	-198.801392	76.687241	-425.244965	-265.656738	60.896439	-376.935394	-57.962498	40.956203	-404.408661
100	0.99000000	-158.102921	1472.936401	-34.660011	-165.101089	1453.293823	-414.414093	-221.137436	1517.727539	-222.051010	-57.034988	1421.246826	-214.247467	-190.105270	1155.898438	133.889587	-172.400833	1119.670654	-514.243469	-110.642265	893.369293	99.766552	-83.846302	861.590454	-478.265640	-93.219879	1012.555725	-66.924896	-96.648232	1015.238586	-348.091034	-288.142822	1027.163574	-154.502075	-285.583862	1024.386841	-255.658051	-286.863342	1025.775208	-205.080063	-282.840149	1252.987671	-212.190750	-33.469879	1276.210693	-216.345230	-194.473450	638.647583	-2.184741	-178.583298	501.803925	-48.229980	-227.936691	303.451965	4.083383	-240.292252	82.397202	-60.954597	-293.860077	53.792465	-125.959190	-96.944717	41.727203	-55.786907	-162.886414	680.514282	-434.778168	-186.551331	503.189789	-398.283539	-205.767273	360.918976	-462.760406	-198.674667	76.861885	-425.196808	-265.523560	60.884762	-377.178925	-57.987724	40.969151	-404.431091
101	1.00000000	-158.258163	1473.050171	-34.608959	-165.181259	1453.215942	-414.458221	-221.122971	1517.702393	-222.103302	-57.080006	1421.234985	-214.403442	-190.135284	1155.991577	133.955338	-172.421371	1119.598755	-514.297791	-110.651489	893.377014	99.753464	-83.872498	861.590607	-478.224960	-93.245239	1012.554016	-66.911369	-96.658295	1015.213013	-348.019409	-288.139832	1027.161133	-154.504456	-285.553772	1024.398560	-255.727509	-286.846802	1025.779846	-205.115982	-282.844330	1253.018311	-212.174423	-33.368755	1276.294922	-216.404480	-194.414047	638.669678	-2.177845	-178.580505	501.808044	-48.231949	-228.277390	302.414764	3.195447	-240.267914	82.389168	-61.011333	-293.827026	53.825832	-125.902992	-96.940277	41.722080	-55.791073	-162.978729	680.416748	-434.800415	-186.558060	503.229095	-398.300781	-205.764206	360.920380	-462.758820	-198.702438	76.741638	-425.250336	-265.601959	60.850636	-377.000916	-57.991455	40.968460	-404.366669
102	1.01000000	-158.263626	1473.134277	-34.576057	-165.252060	1453.191650	-414.361938	-221.151031	1517.706909	-222.097412	-57.137070	1421.224365	-214.389496	-190.142105	1155.924927	133.909622	-172.402939	1119.635986	-514.257935	-110.648380	893.396606	99.755100	-83.889175	861.560547	-478.237732	-93.248177	1012.608398	-66.945564	-96.743202	1015.213989	-348.133698	-288.110016	1027.081787	-154.502045	-285.603699	1024.403687	-255.767639	-286.856857	1025.742737	-205.134842	-282.853302	1253.039062	-212.158035	-33.490257	1276.299805	-216.502502	-194.528931	638.669373	-2.192037	-178.581055	501.820740	-48.220806	-227.968018	302.786072	3.353697	-240.501602	82.302032	-60.887959	-293.841217	53.768124	-125.904404	-96.985321	41.627647	-55.847794	-162.970093	680.372314	-434.754669	-186.564148	503.168823	-398.307281	-205.787766	360.923462	-462.783722	-198.812180	76.611473	-425.195099	-265.644196	60.837517	-376.934113	-57.936474	40.917892	-404.427734
103	1.02000000	-158.119614	1473.009766	-34.610882	-165.323090	1452.987183	-414.421112	-221.279785	1517.653809	-222.080933	-57.180176	1421.240356	-214.344208	-190.108597	1156.067627	133.978653	-172.446213	1119.612915	-514.341370	-110.649189	893.408600	99.731895	-83.943073	861.554718	-478.291443	-93.230629	1012.589722	-66.962540	-96.798912	1015.204102	-348.081757	-288.104614	1027.058105	-154.532745	-285.640015	1024.394409	-255.776840	-286.872314	1025.726257	-205.154793	-282.857086	1253.051636	-212.128204	-33.504055	1276.273560	-216.424591	-194.637772	638.538879	-2.236542	-178.586884	501.800293	-48.218685	-227.958237	302.985901	3.557479	-240.412018	82.325912	-60.919960	-293.887543	53.782574	-125.849380	-96.996986	41.617115	-55.849770	-163.051727	680.348145	-434.853729	-186.620453	503.188660	-398.231964	-205.778580	360.869202	-462.796753	-198.808365	76.570389	-425.238220	-265.656830	60.812428	-376.923981	-57.950134	40.946125	-404.402649
104	1.03000000	-158.129822	1473.035400	-34.605801	-165.300507	1453.204834	-414.409088	-221.289764	1517.640869	-222.100510	-57.151493	1421.295898	-214.323792	-190.130112	1155.924683	133.911682	-172.457001	1119.611572	-514.353577	-110.676334	893.374176	99.733253	-83.908958	861.560059	-478.326355	-93.212532	1012.577942	-66.982811	-96.688217	1015.219360	-348.040833	-288.202057	1027.125122	-154.572601	-285.741394	1024.461914	-255.673737	-286.971725	1025.793518	-205.123169	-282.860992	1253.005493	-212.156967	-33.501553	1276.370117	-216.542007	-194.548950	638.545105	-2.254550	-178.593658	501.822052	-48.193672	-228.041641	303.385773	4.082866	-240.504135	82.270287	-60.892738	-293.848053	53.768730	-125.868202	-96.949547	41.691284	-55.797329	-163.018906	680.311157	-434.841431	-186.648132	503.173737	-398.247406	-205.784134	360.865753	-462.808350	-198.823990	76.545258	-425.205353	-265.619568	60.815548	-377.007568	-57.951542	40.890099	-404.419434
105	1.04000000	-158.205231	1473.071411	-34.591267	-165.340286	1453.199463	-414.375427	-221.285538	1517.639771	-222.080994	-57.085304	1421.261597	-214.515335	-190.208954	1156.018921	133.957916	-172.493011	1119.626343	-514.328735	-110.677723	893.389221	99.696716	-83.994862	861.578674	-478.329636	-93.162308	1012.651428	-67.021233	-96.820190	1015.208557	-348.020050	-288.262177	1027.059082	-154.550598	-285.759552	1024.452271	-255.630386	-287.010864	1025.755676	-205.090492	-282.986938	1252.969604	-212.210129	-33.473236	1276.438599	-216.493088	-194.597656	638.521545	-2.231339	-178.522141	501.785614	-48.157917	-228.012497	303.402649	4.147081	-240.370361	82.320328	-60.944870	-293.800171	53.778339	-125.923027	-96.973007	41.621197	-55.855564	-163.032654	680.353455	-434.846588	-186.585648	503.125610	-398.260315	-205.803696	360.844574	-462.824524	-198.869766	76.569778	-425.213409	-265.654633	60.768963	-376.907257	-57.982735	40.934292	-404.384827
